<svg xmlns="http://www.w3.org/2000/svg" viewBox="0 0 1200 630">
<rect x="0" y="0" width="1200" height="630" fill="#ffffff"/>
<rect x="14" y="14" width="1172" height="602" rx="20" fill="none" stroke="#d9c9e0" stroke-width="2"/>
<text x="70" y="112" font-family="DejaVu Sans,Arial,sans-serif" font-size="22" font-weight="700" letter-spacing="3" fill="#6d635f">AI RESOURCE CENTER · STUDENT SUPPORT AND SUCCESS</text>
<text x="68" y="196" font-family="DejaVu Serif,Georgia,serif" font-size="66" fill="#26221f">Student Journey Gap Analysis</text>
<text x="70" y="250" font-family="DejaVu Sans,Arial,sans-serif" font-size="30" fill="#6d635f">A ten-college UX study of how students find help across Maricopa.</text>
<path d="M 90 400 Q 600 300 1110 400" fill="none" stroke="#d9c9e0" stroke-width="3"/>
<circle cx="90" cy="400" r="11" fill="#7a5080"/>
<circle cx="260" cy="372" r="11" fill="#6b8f6e"/>
<circle cx="430" cy="356" r="11" fill="#75592c"/>
<circle cx="600" cy="350" r="11" fill="#94395a"/>
<circle cx="770" cy="356" r="11" fill="#456546"/>
<circle cx="940" cy="372" r="11" fill="#7a5080"/>
<circle cx="1110" cy="400" r="11" fill="#6b8f6e"/>
<rect x="70" y="470" width="262" height="88" rx="12" fill="#f7f4f8" stroke="#d9c9e0"/>
<text x="92" y="516" font-family="DejaVu Serif,Georgia,serif" font-size="34" fill="#7a5080">10</text>
<text x="92" y="542" font-family="DejaVu Sans,Arial,sans-serif" font-size="19" fill="#6d635f">colleges</text>
<rect x="347" y="470" width="262" height="88" rx="12" fill="#f7f4f8" stroke="#d9c9e0"/>
<text x="369" y="516" font-family="DejaVu Serif,Georgia,serif" font-size="34" fill="#7a5080">140,000</text>
<text x="369" y="542" font-family="DejaVu Sans,Arial,sans-serif" font-size="19" fill="#6d635f">students</text>
<rect x="624" y="470" width="262" height="88" rx="12" fill="#f7f4f8" stroke="#d9c9e0"/>
<text x="646" y="516" font-family="DejaVu Serif,Georgia,serif" font-size="34" fill="#7a5080">50</text>
<text x="646" y="542" font-family="DejaVu Sans,Arial,sans-serif" font-size="19" fill="#6d635f">student agents</text>
<rect x="901" y="470" width="262" height="88" rx="12" fill="#f7f4f8" stroke="#d9c9e0"/>
<text x="923" y="516" font-family="DejaVu Serif,Georgia,serif" font-size="34" fill="#7a5080">25,000</text>
<text x="923" y="542" font-family="DejaVu Sans,Arial,sans-serif" font-size="19" fill="#6d635f">synthetic runs</text>
<text x="70" y="596" font-family="DejaVu Sans,Arial,sans-serif" font-size="21" fill="#26221f">Michelle Blomberg</text>
<text x="1130" y="596" text-anchor="end" font-family="DejaVu Sans,Arial,sans-serif" font-size="21" fill="#6d635f">singletrackmom.github.io/airc-sss</text>
</svg>