<svg xmlns="http://www.w3.org/2000/svg" viewBox="0 0 200 160" width="200" height="160">
  <g transform="translate(200,0) scale(-1,1)">
    <g fill="none" stroke="#1A1A1A" stroke-width="2.5" stroke-linecap="round" stroke-linejoin="round">
      <rect x="44" y="48" width="72" height="58" rx="2"/>
      <rect x="52" y="56" width="56" height="42" rx="1" stroke-width="1.5"/>
      <path d="M56,48 L56,42 L104,42 L104,48"/>
      <rect x="116" y="60" width="8" height="34" rx="1"/>
      <rect x="124" y="66" width="28" height="22" rx="2"/>
      <line x1="132" y1="66" x2="132" y2="88" stroke-width="1.5"/>
      <line x1="142" y1="66" x2="142" y2="88" stroke-width="1.5"/>
      <ellipse cx="152" cy="77" rx="3" ry="10"/>
      <path d="M70,106 L76,114 L84,114 L90,106 Z"/>
      <line x1="76" y1="114" x2="48" y2="152"/>
      <line x1="80" y1="114" x2="80" y2="152"/>
      <line x1="84" y1="114" x2="112" y2="152"/>
      <line x1="62" y1="132" x2="80" y2="132" stroke-width="1.5"/>
      <line x1="80" y1="132" x2="98" y2="132" stroke-width="1.5"/>
    </g>
  </g>
  <g fill="none" stroke="#A8202D" stroke-width="2" stroke-linecap="round">
    <line x1="18" y1="24" x2="18" y2="34"/>
    <line x1="13" y1="29" x2="23" y2="29"/>
    <line x1="180" y1="22" x2="186" y2="28"/>
    <line x1="180" y1="28" x2="186" y2="22"/>
    <circle cx="30" cy="52" r="1.5" fill="#A8202D"/>
    <line x1="178" y1="142" x2="178" y2="152"/>
    <line x1="173" y1="147" x2="183" y2="147"/>
    <line x1="20" y1="142" x2="26" y2="148"/>
  </g>
</svg>
